<svg width="760" height="620" viewBox="0 0 760 620" fill="none" xmlns="http://www.w3.org/2000/svg">
  <rect width="760" height="620" fill="none"/>

  <path d="M80 562C120 562 138 596 190 596C238 596 258 562 308 562" stroke="#D9D9DC" stroke-width="3" stroke-linecap="round"/>

  <rect x="185" y="70" width="288" height="500" rx="48" fill="#ECECEE" stroke="#D1D1D5" stroke-width="8"/>
  <rect x="248" y="72" width="156" height="26" rx="12" fill="#D1D1D5"/>
  <rect x="250" y="208" width="164" height="150" rx="8" fill="#EFEFF2" stroke="#BEBEC2" stroke-width="2"/>

  <circle cx="300" cy="284" r="23" fill="#BFBFC3"/>
  <circle cx="330" cy="284" r="23" fill="#C9C9CE"/>
  <circle cx="360" cy="284" r="23" fill="#D6D6DB"/>
  <circle cx="390" cy="284" r="23" fill="#7F2BE2"/>

  <circle cx="280" cy="410" r="7" fill="#7F2BE2"/>
  <circle cx="304" cy="410" r="7" fill="#7F2BE2"/>
  <circle cx="328" cy="410" r="7" fill="#7F2BE2"/>
  <line x1="350" y1="410" x2="440" y2="410" stroke="#B8B8BD" stroke-width="3"/>

  <circle cx="280" cy="474" r="7" fill="#7F2BE2"/>
  <circle cx="304" cy="474" r="7" fill="#7F2BE2"/>
  <circle cx="328" cy="474" r="7" fill="#7F2BE2"/>
  <line x1="350" y1="474" x2="440" y2="474" stroke="#B8B8BD" stroke-width="3"/>

  <rect x="384" y="525" width="76" height="32" rx="5" fill="#7F2BE2"/>

  <g transform="translate(512,312)">
    <path d="M56 0C70 0 78 8 78 22V44H34V22C34 8 42 0 56 0Z" fill="#0D112A"/>
    <rect x="24" y="38" width="64" height="110" rx="20" fill="#8A30E8"/>
    <path d="M25 86C10 95 4 116 8 136C10 148 16 157 22 162L42 152C39 148 33 140 30 127C27 114 30 103 39 97L25 86Z" fill="#F6B8A4"/>
    <path d="M90 152C108 173 106 204 106 220L82 220C82 206 84 183 68 164L90 152Z" fill="#0D112A"/>
    <path d="M46 152C42 168 40 186 38 220H58C59 190 62 172 70 156L46 152Z" fill="#0D112A"/>
    <path d="M44 44H78V72C78 80 73 88 66 92L58 96C50 92 44 84 44 76V44Z" fill="#F6B8A4"/>
  </g>

  <path d="M28 548C48 548 62 564 74 592H28V548Z" fill="#E5E5E8"/>
  <path d="M48 552C76 552 92 576 104 592H64L48 552Z" fill="#E0E0E4"/>
</svg>
